# xmcd
#
# Track frame offsets: 
#        150
#        20417
#        38864
#        56624
#        72587
#        87786
#        107545
#        127174
#        146537
#        165222
#        186349
#        203314
#
# Disc length: 2950 seconds
#
# Revision: 0
# Processed by: cddbd v1.5.2PL0 Copyright (c) Steve Scherf et al.
# Submitted via: ExactAudioCopyFreeDBPlugin 1.0
#
DISCID=9e0b840c
DTITLE=Chubby Carrier and The Bayou Swamp Band - Rockin' With Roy
DYEAR=2012
DGENRE=Zydeco
TTITLE0=I Found My Woman Doing The Zydeco
TTITLE1=Don't You Leave Me
TTITLE2=Whiskey Drinking Man
TTITLE3=Roy Left Lawtell
TTITLE4=Blue Runner
TTITLE5=The Night Time Is The Right Time
TTITLE6=Jambalaya
TTITLE7=Don't Mess With My Toot Toot
TTITLE8=The Way I Feel
TTITLE9=Shake It
TTITLE10=Rockin' Robin
TTITLE11=Get On The Floor
EXTD=
EXTT0=
EXTT1=
EXTT2=
EXTT3=
EXTT4=
EXTT5=
EXTT6=
EXTT7=
EXTT8=
EXTT9=
EXTT10=
EXTT11=
PLAYORDER=
